<svg width="337" height="327" viewBox="0 0 337 327" fill="none" xmlns="http://www.w3.org/2000/svg">
<path fill-rule="evenodd" clip-rule="evenodd" d="M244.408 110.586C268.192 113.192 288.43 127.792 293.273 148.146C298.156 168.672 286.975 189.912 265.505 199.259C246.169 207.677 224.757 197.809 208.672 184.98C192.343 171.956 178.346 154.054 186.79 136.477C195.985 117.335 220.531 107.969 244.408 110.586Z" fill="#083D77"/>
<path fill-rule="evenodd" clip-rule="evenodd" d="M138.943 104.803C153.566 101.325 163.211 84.2855 177.963 84.2503C192.326 84.2161 203.74 94.4029 210.679 104.632C217.206 114.255 210.212 127.882 214.734 138.459C220.463 151.862 247.845 159.826 240.236 173.778C232.113 188.674 204.179 180.88 187.324 188.719C176.93 193.554 173.26 206.566 162.293 210.029C151.236 213.52 139.574 210.445 129.338 207.029C119.804 203.847 115.05 195.12 105.949 191.225C91.3467 184.976 62.6353 191.708 60.1808 177.435C57.6696 162.833 91.045 158.218 97.7879 143.77C103.899 130.676 83.1766 114.749 94.3918 104.13C105.179 93.9168 123.933 108.374 138.943 104.803Z" fill="#F79256"/>
<path d="M110.017 138.098C112.297 138.086 114.257 138.506 115.897 139.357C117.558 140.188 118.809 141.391 119.653 142.966C120.516 144.541 120.923 146.398 120.873 148.538C120.824 150.677 120.331 152.539 119.394 154.123C118.478 155.687 117.17 156.894 115.47 157.742C113.791 158.57 111.812 158.99 109.532 159.002L103.022 159.035L103.507 138.131L110.017 138.098ZM109.584 156.753C112.284 156.739 114.361 156.018 115.814 154.591C117.267 153.145 118.024 151.131 118.083 148.552C118.144 145.953 117.471 143.927 116.065 142.475C114.679 141.023 112.645 140.303 109.966 140.317L106.186 140.336L105.804 156.772L109.584 156.753ZM139.438 150.002C139.426 150.522 139.383 151.072 139.31 151.652L126.17 151.719C126.232 153.338 126.753 154.605 127.731 155.52C128.73 156.414 129.95 156.858 131.39 156.851C132.57 156.844 133.556 156.569 134.349 156.026C135.162 155.462 135.739 154.719 136.08 153.798L139.02 153.782C138.544 155.364 137.634 156.659 136.29 157.665C134.948 158.652 133.296 159.15 131.336 159.16C129.776 159.168 128.385 158.825 127.161 158.132C125.957 157.438 125.02 156.453 124.35 155.177C123.68 153.881 123.365 152.383 123.404 150.684C123.444 148.984 123.818 147.493 124.528 146.21C125.237 144.927 126.21 143.942 127.446 143.256C128.702 142.55 130.13 142.193 131.73 142.184C133.29 142.176 134.662 142.509 135.847 143.183C137.031 143.857 137.929 144.792 138.541 145.988C139.174 147.164 139.473 148.502 139.438 150.002ZM136.631 149.446C136.655 148.407 136.446 147.518 136.003 146.781C135.561 146.023 134.944 145.457 134.153 145.081C133.382 144.685 132.517 144.49 131.557 144.494C130.177 144.502 128.987 144.947 127.986 145.832C127.006 146.717 126.427 147.939 126.251 149.5L136.631 149.446ZM151.234 142.054C153.234 142.044 154.84 142.646 156.052 143.859C157.264 145.052 157.843 146.789 157.791 149.068L157.566 158.755L154.866 158.769L155.082 149.472C155.12 147.832 154.739 146.585 153.939 145.729C153.139 144.853 152.029 144.419 150.609 144.427C149.169 144.434 148.009 144.89 147.128 145.794C146.267 146.698 145.817 148.01 145.777 149.729L145.566 158.817L142.836 158.831L143.217 142.395L145.947 142.381L145.893 144.721C146.453 143.878 147.198 143.225 148.128 142.76C149.079 142.295 150.114 142.06 151.234 142.054ZM164.117 156.473L172.187 156.431L172.135 158.68L160.945 158.738L160.997 156.489L169.255 144.481L161.335 144.521L161.387 142.302L172.456 142.245L172.405 144.465L164.117 156.473ZM177.531 139.55C177.011 139.553 176.575 139.375 176.223 139.017C175.872 138.659 175.702 138.22 175.714 137.7C175.726 137.18 175.916 136.74 176.284 136.378C176.653 136.016 177.097 135.834 177.617 135.831C178.117 135.829 178.533 136.006 178.864 136.365C179.216 136.723 179.386 137.162 179.374 137.681C179.362 138.201 179.171 138.642 178.803 139.004C178.455 139.365 178.031 139.548 177.531 139.55ZM178.789 142.213L178.407 158.648L175.677 158.662L176.059 142.227L178.789 142.213ZM186.109 144.844C186.611 143.902 187.308 143.169 188.2 142.644C189.112 142.12 190.208 141.854 191.488 141.848L191.423 144.667L190.703 144.671C187.643 144.686 186.074 146.354 185.997 149.673L185.79 158.61L183.06 158.624L183.441 142.189L186.171 142.175L186.109 144.844ZM201.415 158.8C199.875 158.808 198.483 158.465 197.239 157.772C196.016 157.078 195.059 156.094 194.368 154.818C193.699 153.522 193.383 152.024 193.423 150.324C193.462 148.645 193.856 147.163 194.606 145.88C195.376 144.577 196.399 143.582 197.675 142.895C198.951 142.189 200.369 141.832 201.929 141.824C203.489 141.816 204.891 142.159 206.134 142.852C207.379 143.525 208.346 144.5 209.036 145.776C209.747 147.052 210.082 148.539 210.043 150.239C210.003 151.939 209.588 153.44 208.798 154.744C208.029 156.027 206.996 157.022 205.699 157.728C204.403 158.435 202.975 158.792 201.415 158.8ZM201.471 156.401C202.451 156.396 203.376 156.161 204.247 155.697C205.117 155.232 205.823 154.539 206.365 153.617C206.926 152.694 207.222 151.573 207.253 150.253C207.283 148.934 207.049 147.815 206.551 146.898C206.052 145.981 205.388 145.305 204.558 144.869C203.729 144.414 202.824 144.188 201.844 144.193C200.844 144.199 199.919 144.433 199.068 144.897C198.238 145.342 197.562 146.025 197.041 146.947C196.519 147.869 196.243 148.99 196.213 150.31C196.182 151.65 196.395 152.778 196.854 153.695C197.333 154.613 197.977 155.299 198.786 155.755C199.596 156.19 200.491 156.406 201.471 156.401ZM228.402 141.958L228.02 158.393L225.29 158.407L225.347 155.978C224.807 156.821 224.062 157.484 223.111 157.969C222.18 158.433 221.155 158.669 220.035 158.674C218.755 158.681 217.611 158.427 216.603 157.912C215.596 157.378 214.804 156.582 214.229 155.525C213.673 154.469 213.413 153.181 213.449 151.661L213.672 142.034L216.372 142.02L216.157 151.287C216.119 152.907 216.5 154.154 217.3 155.03C218.1 155.885 219.21 156.31 220.63 156.302C222.09 156.295 223.25 155.839 224.111 154.935C224.972 154.031 225.422 152.719 225.462 150.999L225.672 141.972L228.402 141.958ZM243.843 137.41L243.358 158.315L240.628 158.329L241.113 137.424L243.843 137.41ZM256.409 141.514C258.409 141.504 260.014 142.105 261.226 143.319C262.438 144.512 263.018 146.248 262.965 148.528L262.74 158.215L260.04 158.229L260.256 148.932C260.294 147.292 259.913 146.044 259.113 145.189C258.313 144.313 257.204 143.879 255.784 143.886C254.344 143.894 253.183 144.35 252.302 145.254C251.442 146.158 250.991 147.47 250.951 149.189L250.74 158.277L248.01 158.291L248.392 141.855L251.122 141.841L251.067 144.181C251.627 143.338 252.372 142.684 253.303 142.22C254.253 141.755 255.289 141.52 256.409 141.514ZM266.371 149.95C266.41 148.25 266.785 146.769 267.494 145.506C268.204 144.222 269.167 143.228 270.383 142.522C271.619 141.816 273.017 141.459 274.577 141.451C276.597 141.44 278.246 141.922 279.523 142.895C280.82 143.868 281.659 145.223 282.038 146.96L279.098 146.975C278.842 145.977 278.31 145.19 277.503 144.615C276.717 144.039 275.724 143.754 274.524 143.76C272.964 143.768 271.691 144.315 270.706 145.399C269.721 146.464 269.206 147.976 269.161 149.935C269.115 151.915 269.56 153.442 270.495 154.517C271.429 155.592 272.677 156.125 274.237 156.117C275.437 156.111 276.443 155.826 277.256 155.262C278.069 154.698 278.638 153.895 278.962 152.854L281.902 152.839C281.423 154.521 280.512 155.875 279.168 156.901C277.825 157.908 276.163 158.416 274.183 158.426C272.623 158.434 271.241 158.092 270.038 157.398C268.854 156.704 267.937 155.719 267.287 154.443C266.636 153.167 266.331 151.669 266.371 149.95ZM286.288 158.274C285.768 158.277 285.332 158.099 284.98 157.741C284.629 157.383 284.459 156.944 284.471 156.424C284.483 155.904 284.673 155.464 285.042 155.102C285.41 154.74 285.854 154.558 286.374 154.555C286.874 154.553 287.29 154.73 287.622 155.089C287.973 155.447 288.143 155.886 288.131 156.405C288.119 156.925 287.929 157.366 287.56 157.728C287.212 158.089 286.788 158.272 286.288 158.274Z" fill="white"/>
</svg>
